# xmcd CD database file
#
# Track frame offsets:
#	150
#	19880
#	35145
#	51255
#	67692
#
# Disc length: 1293 seconds
#
# Revision: 0
# Processed by: cddbd v1.5.1PL2 Copyright (c) Steve Scherf et al.
# Submitted via: CDex 1.50Beta7
#
DISCID=3d050b05
DTITLE=東京６０WATTS - 月夜にムーンウォーク
DYEAR=1900
DGENRE=ロック (日本)
TTITLE0=月夜にムーンウォーク
TTITLE1=にっちもサッチモ
TTITLE2=夕暮れ電車
TTITLE3=バカでいこう
TTITLE4=陽のあたらない部屋
EXTD=
EXTT0=
EXTT1=
EXTT2=
EXTT3=
EXTT4=
PLAYORDER=
